<svg width="512" height="512" xmlns="http://www.w3.org/2000/svg" preserveAspectRatio="xMidYMid meet" version="1.0">

 <g>
  <title>Layer 1</title>
  <g id="svg_1" fill="#000000" transform="translate(0 512) scale(0.1 -0.1)">
   <path fill="#999999" id="svg_2" d="m2415,4929c-153,-20 -329,-87 -466,-179c-93,-62 -235,-212 -298,-314c-112,-180 -155,-341 -155,-566c1,-135 5,-168 28,-255c99,-375 379,-658 756,-763c86,-24 112,-27 270,-27c193,0 265,13 418,77c237,99 461,324 558,562c66,162 77,222 78,411c0,151 -3,180 -26,266c-52,192 -141,344 -282,485c-176,175 -377,273 -621,303c-102,12 -160,12 -260,0z"/>
   <path fill="#999999" id="svg_3" d="m980,2809c-156,-26 -294,-156 -335,-315c-14,-54 -15,-181 -13,-1050l3,-989l33,-67c18,-36 49,-81 69,-99c51,-44 145,-86 223,-98c40,-7 321,-11 734,-11l668,0l-5,28c-4,15 -208,607 -455,1317l-448,1290l-210,1c-115,1 -234,-2 -264,-7z"/>
   <path fill="#999999" id="svg_4" d="m3667,2813c-9,-15 -927,-2612 -927,-2623c0,-8 197,-10 708,-8c690,3 708,4 769,24c139,48 220,122 253,233c20,64 20,91 18,1071l-3,1005l-29,62c-55,120 -179,210 -318,233c-72,11 -465,14 -471,3z"/>
   <path fill="#999999" id="svg_5" d="m2403,2587c-42,-23 -373,-400 -384,-437c-9,-33 6,-79 215,-662c124,-345 230,-636 236,-647c26,-50 95,-66 137,-33c17,13 79,175 248,644c123,346 232,640 241,654c13,19 15,32 8,50c-14,35 -331,402 -367,425c-28,16 -51,19 -172,19c-91,-1 -148,-5 -162,-13z"/>
  </g>
 </g>
</svg>